<svg width="142" height="48" viewBox="0 0 142 48" fill="none" xmlns="http://www.w3.org/2000/svg">
<path d="M25.2694 37.8291C23.8123 39.2441 21.3825 39.4803 19.6872 38.3741C17.9919 37.2659 17.1939 34.9224 17.853 32.9866C16.0485 32.7746 14.1825 32.8251 13.1998 31.2708C12.2192 29.7145 12.783 26.4403 14.5716 26.1093C12.8207 24.5711 12.106 21.9228 12.8405 19.6922C13.577 17.4617 15.717 15.7843 18.0257 15.6329C16.3482 14.117 16.509 11.3677 17.8153 9.51259C19.6614 6.88845 23.7607 7.5142 25.2893 9.18558L25.2694 37.8291Z" fill="#2243A4"/>
<path d="M22.1094 39.6696C21.1506 39.6696 20.1918 39.4092 19.3719 38.8742C17.6449 37.7459 16.7496 35.5375 17.1149 33.5069C17.095 33.5048 17.0732 33.5028 17.0533 33.5008C15.4096 33.3413 13.7084 33.1758 12.7079 31.5912C12.0131 30.4891 11.9436 28.6724 12.5431 27.2715C12.7952 26.6841 13.1426 26.2239 13.5595 25.919C12.0965 24.1932 11.5684 21.674 12.285 19.502C12.9798 17.3946 14.8002 15.7454 16.9084 15.2085C15.767 13.3938 16.1421 10.8645 17.3392 9.16288C18.1789 7.9699 19.5188 7.25532 21.1149 7.15036C22.8737 7.03732 24.7239 7.68932 25.7204 8.77531C25.8216 8.88633 25.8772 9.03167 25.8772 9.18104L25.8574 37.8286C25.8574 37.9921 25.7919 38.1476 25.6767 38.2586C24.7179 39.1871 23.4137 39.6696 22.1094 39.6696ZM21.5179 8.32719C21.4087 8.32719 21.2995 8.33122 21.1903 8.33728C20.3149 8.3938 19.102 8.70466 18.292 9.85323C17.1883 11.4217 16.9342 13.8439 18.4151 15.1823C18.5918 15.3417 18.6573 15.594 18.5799 15.8201C18.5025 16.0482 18.3 16.2057 18.0638 16.2218C15.9794 16.3591 14.0597 17.8629 13.3947 19.8754C12.7317 21.89 13.3709 24.2658 14.9531 25.6526C15.1238 25.802 15.1952 26.0381 15.1357 26.2602C15.0761 26.4822 14.8975 26.6478 14.6751 26.6901C14.0975 26.7971 13.764 27.3946 13.6151 27.7418C13.1744 28.7713 13.2081 30.1782 13.6905 30.9433C14.3833 32.0414 15.6697 32.1665 17.1605 32.3098C17.4126 32.3341 17.6647 32.3583 17.9169 32.3886C18.0935 32.4088 18.2504 32.5097 18.3456 32.6631C18.4409 32.8165 18.4608 33.0042 18.4032 33.1758C17.8335 34.8492 18.5362 36.9102 20.0012 37.867C21.3988 38.7794 23.4057 38.632 24.6802 37.5561L24.7 9.42327C23.9735 8.75512 22.7328 8.32719 21.5179 8.32719Z" fill="#292828"/>
<path d="M28.2082 28.8478C27.8846 28.8478 27.6226 28.5814 27.6226 28.2523C27.6226 27.9233 27.8846 27.6569 28.2082 27.6569C30.6261 27.6569 32.5933 25.6565 32.5933 23.1978C32.5933 20.7392 30.6261 18.7388 28.2082 18.7388C27.8846 18.7388 27.6226 18.4724 27.6226 18.1433C27.6226 17.8143 27.8846 17.5479 28.2082 17.5479C31.2712 17.5479 33.7645 20.0832 33.7645 23.1978C33.7645 26.3125 31.2712 28.8478 28.2082 28.8478Z" fill="#292828"/>
<path d="M30.3382 39.2598H28.2082C27.8846 39.2598 27.6226 38.9933 27.6226 38.6643C27.6226 38.3353 27.8846 38.0688 28.2082 38.0688H29.7526V34.1488C29.7526 33.8641 29.9511 33.6199 30.2251 33.5634C31.5809 33.2929 32.8474 32.758 33.9908 31.9788C34.2231 31.8193 34.5348 31.8516 34.7313 32.0515L37.4569 34.823L39.6405 32.6025L36.9149 29.831C36.7164 29.6292 36.6866 29.3143 36.8435 29.0781C37.6117 27.9154 38.1358 26.6276 38.4018 25.2489C38.4554 24.9703 38.6976 24.7685 38.9775 24.7685H42.8326V21.6276H38.9775C38.6976 21.6276 38.4574 21.4257 38.4018 21.1471C38.1358 19.7685 37.6097 18.4806 36.8435 17.3179C36.6866 17.0817 36.7184 16.7668 36.9149 16.565L39.6405 13.7935L37.4569 11.5731L34.7313 14.3446C34.5328 14.5464 34.2231 14.5767 33.9908 14.4172C32.8474 13.636 31.5809 13.1031 30.2251 12.8326C29.9511 12.7781 29.7526 12.5319 29.7526 12.2473V8.32719H28.2082C27.8846 8.32719 27.6226 8.06074 27.6226 7.73171C27.6226 7.40268 27.8846 7.13623 28.2082 7.13623H30.3382C30.6618 7.13623 30.9238 7.40268 30.9238 7.73171V11.7668C32.097 12.0535 33.2087 12.5198 34.235 13.1597L37.04 10.3074C37.2683 10.0753 37.6395 10.0753 37.8678 10.3074L40.8812 13.3716C41.1095 13.6037 41.1095 13.9812 40.8812 14.2133L38.0762 17.0656C38.7055 18.1112 39.1641 19.2396 39.446 20.4326H43.4142C43.7378 20.4326 43.9999 20.699 43.9999 21.028V25.3599C43.9999 25.6889 43.7378 25.9554 43.4142 25.9554H39.446C39.1641 27.1484 38.7055 28.2788 38.0762 29.3244L40.8812 32.1766C40.9904 32.2876 41.0519 32.439 41.0519 32.5985C41.0519 32.7559 40.9904 32.9073 40.8812 33.0204L37.8678 36.0846C37.6395 36.3167 37.2683 36.3167 37.04 36.0846L34.235 33.2323C33.2067 33.8722 32.097 34.3385 30.9238 34.6251V38.6603C30.9238 38.9933 30.6618 39.2598 30.3382 39.2598Z" fill="#292828"/>
<path d="M21.2339 18.739C21.1088 18.739 20.9837 18.6986 20.8765 18.6158L12.1956 11.8132C12.0507 11.7002 11.9673 11.5266 11.9673 11.3409V4.97634C11.9673 4.64731 12.2293 4.38086 12.5529 4.38086C12.8765 4.38086 13.1385 4.64731 13.1385 4.97634V11.0462L21.5912 17.6691C21.8473 17.869 21.8949 18.2444 21.6984 18.5048C21.5832 18.6582 21.4105 18.739 21.2339 18.739Z" fill="#292828"/>
<path d="M9.95618 27.9435H4.74919C4.42561 27.9435 4.16357 27.6771 4.16357 27.348C4.16357 27.019 4.42561 26.7526 4.74919 26.7526H9.88074L19.6297 24.1284C19.9434 24.0456 20.263 24.2334 20.3463 24.5523C20.4297 24.8712 20.2431 25.1962 19.9295 25.281L10.107 27.9253C10.0574 27.9375 10.0078 27.9435 9.95618 27.9435Z" fill="#292828"/>
<path d="M12.9401 43.4396C12.6165 43.4396 12.3545 43.1732 12.3545 42.8442V38.805C12.3545 38.6617 12.4041 38.5244 12.4954 38.4174L20.7893 28.589C20.9997 28.3387 21.369 28.3104 21.6151 28.5244C21.8613 28.7384 21.8891 29.1138 21.6786 29.3641L13.5257 39.025V42.8442C13.5277 43.1732 13.2637 43.4396 12.9401 43.4396Z" fill="#292828"/>
<path d="M13.5432 4.72877C14.558 4.1807 14.9437 2.8999 14.4047 1.86802C13.8657 0.836148 12.6061 0.443944 11.5913 0.992011C10.5765 1.54008 10.1908 2.82088 10.7298 3.85275C11.2688 4.88463 12.5284 5.27683 13.5432 4.72877Z" fill="#FFD740"/>
<path d="M12.775 2.09561C12.5506 2.83239 11.7824 3.24418 11.0578 3.01608C10.8256 2.94341 10.631 2.80817 10.4742 2.64063C10.3749 3.62367 10.9665 4.5724 11.9293 4.87519C13.0271 5.22036 14.1923 4.59662 14.5318 3.48035C14.8713 2.36408 14.2578 1.17918 13.1601 0.834005C12.9318 0.761337 12.7035 0.74115 12.4772 0.749224C12.7908 1.10046 12.9238 1.60712 12.775 2.09561Z" fill="#E6C238"/>
<path d="M12.5671 5.57357C12.3031 5.57357 12.0351 5.5332 11.7751 5.45044C11.0942 5.23647 10.5364 4.76614 10.2048 4.12424C9.87332 3.48435 9.80583 2.74959 10.0163 2.05722C10.2267 1.36485 10.6892 0.797631 11.3205 0.46053C11.9517 0.123428 12.6724 0.0547973 13.3533 0.268766C14.7587 0.710833 15.5468 2.23284 15.1121 3.66198C14.9017 4.35435 14.4391 4.92157 13.8078 5.25868C13.4188 5.46659 12.9959 5.57357 12.5671 5.57357ZM12.5632 1.33861C12.323 1.33861 12.0867 1.39715 11.8684 1.51422C11.515 1.70397 11.255 2.02089 11.1378 2.41047C11.0187 2.79804 11.0565 3.20982 11.2431 3.56913C11.4297 3.92844 11.7413 4.19287 12.1225 4.31196C12.5056 4.43308 12.9086 4.39473 13.2619 4.20498C13.6153 4.01524 13.8753 3.69832 13.9925 3.30873C14.2366 2.50736 13.7939 1.65552 13.0059 1.40724C12.8609 1.36081 12.7121 1.33861 12.5632 1.33861Z" fill="#292828"/>
<path d="M3.28222 25.3273C4.38 25.6725 4.99539 26.8574 4.65395 27.9737C4.31449 29.0899 3.14922 29.7157 2.05144 29.3685C0.953668 29.0233 0.338281 27.8384 0.679723 26.7221C1.01918 25.6059 2.18445 24.9801 3.28222 25.3273Z" fill="#FFD740"/>
<path d="M2.87945 26.5834C2.65513 27.3202 1.88689 27.732 1.16232 27.5039C0.930056 27.4312 0.735513 27.296 0.578688 27.1284C0.479432 28.1115 1.071 29.0602 2.03379 29.363C3.13156 29.7082 4.29683 29.0844 4.63629 27.9681C4.97575 26.8519 4.36234 25.667 3.26457 25.3218C3.03628 25.2491 2.80799 25.2289 2.58168 25.237C2.89533 25.5903 3.02834 26.0949 2.87945 26.5834Z" fill="#E6C238"/>
<path d="M2.67115 30.0612C2.40712 30.0612 2.13913 30.0208 1.87908 29.938C1.19818 29.7241 0.640358 29.2537 0.308842 28.6118C-0.0226743 27.9719 -0.090168 27.2372 0.120256 26.5448C0.554999 25.1157 2.05178 24.3143 3.45725 24.7563C4.13815 24.9703 4.69597 25.4406 5.02749 26.0826C5.35901 26.7224 5.4265 27.4572 5.21608 28.1496C5.00565 28.8419 4.54312 29.4092 3.91185 29.7463C3.52277 29.9562 3.09993 30.0612 2.67115 30.0612ZM2.66916 25.8282C2.03193 25.8282 1.43838 26.2481 1.23987 26.9001C1.12274 27.2876 1.15848 27.6994 1.34508 28.0587C1.53168 28.418 1.84335 28.6825 2.22648 28.8016C2.60762 28.9227 3.01259 28.8843 3.36594 28.6946C3.71929 28.5048 3.97934 28.1879 4.09647 27.7983C4.21557 27.4108 4.17786 26.999 3.99125 26.6397C3.80465 26.2804 3.49299 26.0159 3.10986 25.8968C2.96296 25.8504 2.81606 25.8282 2.66916 25.8282Z" fill="#292828"/>
<path d="M13.5649 43.2668C14.6627 43.612 15.2781 44.7969 14.9367 45.9132C14.5972 47.0294 13.4319 47.6552 12.3342 47.308C11.2364 46.9628 10.621 45.7779 10.9624 44.6617C11.3019 43.5474 12.4672 42.9216 13.5649 43.2668Z" fill="#FFD740"/>
<path d="M13.1627 44.5248C12.9383 45.2616 12.1701 45.6734 11.4455 45.4453C11.2133 45.3726 11.0187 45.2374 10.8619 45.0698C10.7626 46.0529 11.3542 47.0016 12.317 47.3044C13.4148 47.6496 14.58 47.0258 14.9195 45.9096C15.2589 44.7933 14.6455 43.6084 13.5478 43.2632C13.3195 43.1905 13.0912 43.1703 12.8649 43.1784C13.1785 43.5297 13.3096 44.0363 13.1627 44.5248Z" fill="#E6C238"/>
<path d="M12.9487 48.0003C12.6886 48.0003 12.4226 47.9619 12.1626 47.8791C10.7571 47.4371 9.969 45.9151 10.4037 44.4859C10.6142 43.7936 11.0767 43.2263 11.708 42.8892C12.3373 42.5521 13.0598 42.4835 13.7407 42.6975C14.4216 42.9114 14.9795 43.3818 15.311 44.0237C15.6425 44.6636 15.71 45.3983 15.4996 46.0907C15.1442 47.2534 14.0881 48.0003 12.9487 48.0003ZM12.9487 43.7673C12.7085 43.7673 12.4722 43.8259 12.2539 43.9429C11.9005 44.1327 11.6405 44.4496 11.5234 44.8372C11.2792 45.6385 11.7219 46.4904 12.51 46.7387C13.2961 46.9869 14.1358 46.5368 14.38 45.7354C14.4971 45.3479 14.4613 44.9361 14.2747 44.5768C14.0881 44.2175 13.7765 43.953 13.3933 43.8339C13.2464 43.7915 13.0976 43.7673 12.9487 43.7673Z" fill="#292828"/>
<path d="M18.304 13.2178C18.1036 13.2178 17.9328 13.0624 17.915 12.8545C17.8117 11.6454 18.3239 10.4181 19.251 9.651C20.178 8.88597 21.4644 8.62759 22.6078 8.98084C22.8143 9.04543 22.9314 9.26546 22.8679 9.47539C22.8043 9.68532 22.588 9.80442 22.3815 9.73982C21.4961 9.46731 20.4599 9.67321 19.7433 10.2667C19.0247 10.8601 18.6137 11.8472 18.6931 12.7838C18.711 13.0018 18.5522 13.1956 18.3378 13.2138C18.3279 13.2178 18.316 13.2178 18.304 13.2178Z" fill="#2243A4"/>
<path d="M14.4522 22.3724C14.2517 22.3724 14.081 22.215 14.0631 22.007C13.9778 20.9534 14.2517 19.8896 14.8334 19.0115C15.415 18.1354 16.2825 17.4774 17.2751 17.1625C17.4796 17.0979 17.6999 17.2129 17.7654 17.4229C17.8289 17.6328 17.7158 17.8548 17.5093 17.9215C16.6855 18.1839 15.9649 18.7289 15.4825 19.4556C15.0001 20.1843 14.7738 21.0664 14.8433 21.9425C14.8612 22.1605 14.7004 22.3522 14.486 22.3704C14.4741 22.3724 14.4641 22.3724 14.4522 22.3724Z" fill="#2243A4"/>
<path d="M52 32.4255V16.0105C52 15.6609 52.0651 15.4155 52.1971 15.276C52.3291 15.1366 52.5783 15.0659 52.9446 15.0659H61.6634C62.0316 15.0659 62.29 15.1273 62.4388 15.25C62.5875 15.3727 62.6879 15.6014 62.74 15.9324L63.0282 17.9815C63.0803 18.3329 63.0282 18.5765 62.8702 18.716C62.7121 18.8573 62.4406 18.9261 62.0557 18.9261H57.0688V21.9737H60.6147C60.9643 21.9737 61.2097 22.0387 61.3492 22.1708C61.4886 22.3028 61.5593 22.5519 61.5593 22.9201V24.8111C61.5593 25.1626 61.4886 25.4062 61.3492 25.5456C61.2097 25.6869 60.9643 25.7557 60.6147 25.7557H57.0688V29.3537H62.2175C62.6024 29.3537 62.8702 29.4244 63.0189 29.5638C63.1677 29.7033 63.2253 29.9487 63.19 30.2983L62.8479 32.4775C62.8125 32.8271 62.7158 33.0651 62.5596 33.186C62.4016 33.3087 62.1394 33.3701 61.7713 33.3701H52.9464C52.5969 33.3701 52.3514 33.3013 52.212 33.1599C52.0707 33.0223 52 32.7769 52 32.4255Z" fill="#2243A4"/>
<path d="M66 32.8044V24.794C66 23.0257 66.4165 21.8264 67.2477 21.1961C68.0788 20.5657 69.3879 20.2515 71.1748 20.2515C71.9632 20.2515 72.6809 20.3221 73.328 20.4616C73.6608 20.549 73.897 20.6717 74.0364 20.8297C74.1759 20.9878 74.2558 21.2146 74.2726 21.5122L74.4046 23.6133C74.4399 23.9815 74.3785 24.2269 74.2205 24.3478C74.0624 24.4705 73.8003 24.4965 73.4321 24.4259C72.6976 24.2678 72.1547 24.1897 71.8033 24.1897C71.489 24.1897 71.2733 24.2511 71.1599 24.3738C71.0465 24.4965 70.9888 24.7159 70.9888 25.0302V32.8044C70.9888 33.154 70.9182 33.3994 70.7787 33.5389C70.6374 33.6802 70.3938 33.749 70.0442 33.749H66.9464C66.6136 33.749 66.3719 33.6802 66.225 33.5389C66.0744 33.4013 66 33.1558 66 32.8044Z" fill="#2243A4"/>
<path d="M73.9819 29.668V29.1697C73.9819 27.6821 74.4115 26.6743 75.2687 26.15C76.1258 25.6256 77.5539 25.2928 79.549 25.1515L80.7577 25.0734V24.1009C80.7577 23.768 80.6833 23.5486 80.5345 23.4445C80.3858 23.3404 80.1441 23.2865 79.8112 23.2865C78.5859 23.2865 77.3419 23.4538 76.0812 23.7848C75.661 23.8889 75.3765 23.8852 75.2277 23.7718C75.079 23.6583 75.0213 23.4092 75.0567 23.0243L75.1608 21.6055C75.1775 21.2727 75.2649 21.0198 75.423 20.8432C75.581 20.6684 75.8339 20.5196 76.1853 20.3969C77.3047 20.0473 78.6193 19.8726 80.1255 19.8726C81.8938 19.8726 83.2456 20.2147 84.1827 20.8971C85.1199 21.5795 85.5884 22.7881 85.5884 24.5211V31.3768C85.5884 31.7264 85.5401 31.9941 85.4434 32.1782C85.3467 32.3623 85.1329 32.5334 84.8 32.6895C83.452 33.3032 81.6651 33.6081 79.4412 33.6081C77.6376 33.6081 76.2765 33.3459 75.3579 32.8197C74.4412 32.2953 73.9819 31.2448 73.9819 29.668ZM78.7365 29.0376V29.2478C78.7365 29.6513 78.8239 29.9097 78.9986 30.0231C79.1734 30.1366 79.4096 30.1942 79.7071 30.1942C80.0753 30.1942 80.4248 30.1514 80.7577 30.0622V27.9871C80.3021 28.0057 79.9265 28.0317 79.629 28.0652C79.034 28.1358 78.7365 28.4594 78.7365 29.0376Z" fill="#2243A4"/>
<path d="M87.4033 29.668V29.1697C87.4033 27.6821 87.8328 26.6743 88.69 26.15C89.5472 25.6256 90.9753 25.2928 92.9704 25.1515L94.179 25.0734V24.1009C94.179 23.768 94.1047 23.5486 93.9559 23.4445C93.8072 23.3404 93.5654 23.2865 93.2326 23.2865C92.0072 23.2865 90.7633 23.4538 89.5026 23.7848C89.0824 23.8889 88.7979 23.8852 88.6491 23.7718C88.5004 23.6583 88.4427 23.4092 88.4781 23.0243L88.5822 21.6055C88.5989 21.2727 88.6863 21.0198 88.8444 20.8432C89.0024 20.6684 89.2553 20.5196 89.6067 20.3969C90.7261 20.0473 92.0407 19.8726 93.5468 19.8726C95.3152 19.8726 96.667 20.2147 97.6041 20.8971C98.5412 21.5795 99.0098 22.7881 99.0098 24.5211V31.3768C99.0098 31.7264 98.9615 31.9941 98.8648 32.1782C98.7681 32.3623 98.5543 32.5334 98.2214 32.6895C96.8733 33.3032 95.0864 33.6081 92.8626 33.6081C91.0589 33.6081 89.6978 33.3459 88.7793 32.8197C87.8626 32.2953 87.4033 31.2448 87.4033 29.668ZM92.156 29.0376V29.2478C92.156 29.6513 92.2434 29.9097 92.4182 30.0231C92.593 30.1366 92.8291 30.1942 93.1266 30.1942C93.4948 30.1942 93.8443 30.1514 94.1772 30.0622V27.9871C93.7216 28.0057 93.346 28.0317 93.0485 28.0652C92.4535 28.1358 92.156 28.4594 92.156 29.0376Z" fill="#2243A4"/>
<path d="M101.767 32.7154L101.635 31.6128C101.617 31.4734 101.635 31.3767 101.688 31.3246C101.74 31.2725 101.846 31.2632 102.002 31.2986C103.787 31.5961 105.101 31.7448 105.942 31.7448C107.342 31.7448 108.288 31.5477 108.777 31.1535C109.267 30.7593 109.512 29.9579 109.512 28.7512V27.9367C109.512 26.8341 109.311 26.0717 108.908 25.6515C108.504 25.2313 107.76 24.9077 106.676 24.679L106.256 24.5749C105.432 24.4001 104.785 24.2291 104.313 24.0636C103.841 23.8981 103.376 23.6526 102.92 23.3272C102.465 23.0037 102.141 22.5797 101.95 22.0535C101.756 21.5292 101.661 20.8709 101.661 20.0844V19.428C101.661 17.6951 102.082 16.4957 102.922 15.8301C103.763 15.1644 105.092 14.8315 106.914 14.8315C108.21 14.8315 109.242 14.9543 110.014 15.1997C110.293 15.2871 110.444 15.4451 110.46 15.672L110.564 16.6705C110.581 16.7932 110.564 16.8806 110.512 16.9327C110.46 16.9847 110.364 17.0033 110.224 16.9847C109.348 16.7058 108.21 16.5645 106.81 16.5645C105.743 16.5645 104.968 16.7523 104.486 17.1279C104.004 17.5035 103.764 18.199 103.764 19.2142V19.8185C103.764 20.7798 103.962 21.4399 104.356 21.7988C104.75 22.1577 105.525 22.4589 106.682 22.7043L107.102 22.8085C108.783 23.1599 109.951 23.6582 110.607 24.3071C111.264 24.9561 111.593 26.1108 111.593 27.775V28.5894C111.593 30.499 111.189 31.8136 110.384 32.5314C109.579 33.2491 108.143 33.608 106.076 33.608C104.78 33.608 103.476 33.4667 102.164 33.1877C101.916 33.1171 101.786 32.9609 101.767 32.7154Z" fill="#2243A4"/>
<path d="M114.847 29.4581V24.1531C114.847 22.5949 115.276 21.4997 116.133 20.8694C116.991 20.239 118.164 19.9248 119.653 19.9248H119.915C121.386 19.9248 122.528 20.2353 123.342 20.8564C124.157 21.4774 124.564 22.5763 124.564 24.1531V29.4581C124.564 31.0162 124.134 32.1114 123.277 32.7418C122.42 33.3721 121.247 33.6864 119.757 33.6864H119.495C118.024 33.6864 116.881 33.3759 116.068 32.7548C115.254 32.1338 114.847 31.0348 114.847 29.4581ZM119.469 31.8753H119.783C121.568 31.8753 122.463 31.0088 122.463 29.2758V24.181C122.463 23.2699 122.256 22.6191 121.846 22.2249C121.435 21.8307 120.799 21.6336 119.941 21.6336H119.627C118.735 21.6336 118.065 21.8307 117.617 22.2249C117.171 22.6191 116.948 23.2718 116.948 24.181V29.3019C116.948 30.213 117.154 30.8694 117.565 31.271C117.976 31.6745 118.612 31.8753 119.469 31.8753Z" fill="#2243A4"/>
<path d="M128.792 33.0037V21.8416H127.189C126.944 21.8416 126.821 21.7189 126.821 21.4735V20.607C126.821 20.3615 126.944 20.2388 127.189 20.2388H128.792V18.3738C128.792 15.6256 130.263 14.2515 133.205 14.2515C133.309 14.2515 133.415 14.2552 133.519 14.2645C133.623 14.2738 133.716 14.2831 133.794 14.2905C133.872 14.2998 133.943 14.3035 134.004 14.3035C134.066 14.3035 134.114 14.3035 134.149 14.3035L134.201 14.3296C134.48 14.3816 134.631 14.5043 134.648 14.6977L134.726 15.7483C134.742 15.8896 134.729 15.977 134.687 16.0105C134.642 16.0458 134.551 16.0551 134.411 16.0365L134.227 16.0105C134.105 15.9937 133.952 15.9807 133.768 15.9714C133.584 15.9621 133.396 15.9584 133.203 15.9584C131.661 15.9584 130.892 16.7022 130.892 18.1916V20.2407H136.249V16.9569C136.249 16.7468 136.345 16.6334 136.537 16.6148L138.034 16.4307C138.244 16.414 138.348 16.5088 138.348 16.7189V20.2388H141.368C141.526 20.2388 141.626 20.2555 141.669 20.2909C141.712 20.3262 141.734 20.4136 141.734 20.553L141.866 21.4976C141.883 21.6371 141.866 21.73 141.814 21.7728C141.762 21.8174 141.665 21.8379 141.526 21.8379H138.348V29.852C138.348 30.6404 138.48 31.148 138.742 31.3749C139.004 31.6036 139.547 31.717 140.371 31.717C140.616 31.717 140.888 31.7003 141.185 31.6649C141.483 31.6296 141.658 31.6129 141.71 31.6129C141.92 31.6129 142.016 31.7263 141.998 31.955L141.866 32.9535C141.831 33.2157 141.717 33.3644 141.524 33.3998C141.085 33.4872 140.605 33.5318 140.079 33.5318C138.766 33.5318 137.797 33.2826 137.176 32.7824C136.555 32.2841 136.245 31.3079 136.245 29.8539V21.8435H130.888V33.0056C130.888 33.251 130.765 33.3737 130.52 33.3737H129.155C128.915 33.3719 128.792 33.2492 128.792 33.0037Z" fill="#2243A4"/>
</svg>
